<svg width="76" height="68" viewBox="0 0 76 68" fill="none" xmlns="http://www.w3.org/2000/svg">
<g id="Swap">
<path id="Swap_2" fill-rule="evenodd" clip-rule="evenodd" d="M21.2982 1.29224C21.9214 1.7421 22.9264 2.77543 22.9264 2.77543C26.828 6.43217 32.7045 15.5273 34.5916 20.1416C34.6311 20.1416 35.7502 22.8853 35.7941 24.1903V24.364C35.7941 26.3639 34.675 28.2346 32.8756 29.1922C32.1338 29.587 30.3296 29.9542 29.4591 30.1313C29.1708 30.19 28.985 30.2278 28.974 30.2389C26.4023 30.6308 22.4568 30.8892 18.1251 30.8892C13.5784 30.8892 9.46177 30.6308 6.92948 30.1498C6.88559 30.1498 4.57274 29.6732 3.80032 29.3659C2.68558 28.8893 1.74201 28.0163 1.14075 26.9296C0.710659 26.061 0.5 25.1435 0.5 24.1903C0.539499 23.1882 1.18464 21.3175 1.48307 20.5781C3.37023 15.701 9.54516 6.38763 13.3195 2.81997C13.7115 2.42206 14.1577 2.00522 14.4682 1.71517C14.6338 1.56042 14.7609 1.44175 14.8204 1.38132C15.764 0.641953 16.9226 0.25 18.169 0.25C19.2794 0.25 20.3941 0.597413 21.2982 1.29224ZM61.3573 27.1067C61.3573 29.0709 59.7906 30.6611 57.8551 30.6611C55.9197 30.6611 54.3529 29.0709 54.3529 27.1067L53.3874 9.93608C53.3874 7.43287 55.3887 5.40625 57.8551 5.40625C60.3216 5.40625 62.3185 7.43287 62.3185 9.93608L61.3573 27.1067ZM72.1997 38.6334C73.3144 39.1144 74.258 39.9829 74.8592 41.0698C75.2893 41.9383 75.5 42.8559 75.5 43.8135C75.4605 44.8112 74.8154 46.6864 74.5125 47.4258C72.6298 52.2986 66.4504 61.6121 62.6805 65.1843C62.2951 65.5726 61.8575 65.981 61.5478 66.27L61.5474 66.2703C61.3741 66.432 61.241 66.5562 61.1796 66.6185C60.2316 67.3579 59.0774 67.7499 57.8354 67.7499C56.7163 67.7499 55.6015 67.4025 54.7018 66.7032C54.0786 66.2578 53.0736 65.2244 53.0736 65.2244C49.1677 61.572 43.2955 52.4723 41.4084 47.8578C41.3645 47.8578 40.2498 45.1185 40.2059 43.8135V43.6398C40.2059 41.6354 41.3206 39.7647 43.1244 38.8071C43.8647 38.4164 45.6632 38.0482 46.5356 37.8696L46.5359 37.8696C46.827 37.81 47.015 37.7715 47.026 37.7603C49.5977 37.3684 53.5432 37.11 57.8749 37.11C62.4216 37.11 66.5382 37.3684 69.0705 37.8494C69.11 37.8494 71.4273 38.326 72.1997 38.6334ZM18.1457 37.3398C16.2103 37.3398 14.6435 38.9299 14.6435 40.8941L13.678 58.0644C13.678 60.5675 15.6793 62.5941 18.1457 62.5941C20.6122 62.5941 22.6091 60.5675 22.6091 58.0644L21.6479 40.8941C21.6479 38.9299 20.0812 37.3398 18.1457 37.3398Z" fill="white"/>
</g>
</svg>
